<?xml version="1.0" encoding="UTF-8"?>
<!DOCTYPE svg PUBLIC "-//W3C//DTD SVG 1.1//EN" "http://www.w3.org/Graphics/SVG/1.1/DTD/svg11.dtd">
<!-- Creator: CorelDRAW 2018 (64 Bit Versão de avaliação) -->
<svg xmlns="http://www.w3.org/2000/svg" xml:space="preserve" width="149.712mm" height="149.762mm" version="1.1" style="shape-rendering:geometricPrecision; text-rendering:geometricPrecision; image-rendering:optimizeQuality; fill-rule:evenodd; clip-rule:evenodd"
viewBox="0 0 113044.9 113082.3"
 xmlns:xlink="http://www.w3.org/1999/xlink">
 <defs>
  <style type="text/css">
   <![CDATA[
    .fil0 {fill:#F1F1F2}
   ]]>
  </style>
 </defs>
 <g id="Camada_x0020_1">
  <metadata id="CorelCorpID_0Corel-Layer"/>
  <g id="_2720563711616">
   <path class="fil0" d="M83737 41882.4l-16149.3 199.4c-2193.1,0 -2791.2,797.7 -2591.8,2991.6 0,3191 199.3,19944 -199.4,21539.5l-15750.5 0c-5183.7,0 -2193.1,4387.7 -2990.6,13163 -2193.1,0 -12959.3,0 -15950,0 -3788.1,0 -2990.6,1595.5 -2990.6,4986 0,2792.1 0,5584.3 0,8177l-14554.3 0c-1595,0 -3389.4,-199.4 -3987.5,997.2 -797.5,997.2 -398.8,16553.5 -398.8,19146.2l3788.1 0 0 -16354 15152.4 0c199.3,1994.4 -797.5,4985.9 1395.6,5384.9 2990.6,598.3 2392.5,-3191 2392.5,-4587.1l0 -13960.8 15152.4 0c0,3589.9 -398.8,28320.4 199.3,29517l3389.4 0 199.3 -42680 15152.4 0 0 7578.7c-996.9,797.7 -2990.6,1994.4 -2193.1,4786.5 1395.6,5783.8 10367.4,2592.7 7775.6,-2991.6 -797.5,-1196.7 -1395.6,-997.2 -1993.8,-1994.4l0 -31910.3 15152.4 0c0,2193.8 -199.3,47267.2 199.3,48264.4 598.2,1396.1 3588.7,1994.4 3588.7,-1396.1 0,-2592.7 -199.3,-53250.4 0,-55244.8l15152.4 0 0 43677.3c-199.4,598.3 -797.5,398.9 -1595,1994.4 -1595,2792.1 398.8,5983.2 3389.4,6182.6 3389.3,0 5183.7,-3589.9 3788.1,-6182.6 -1993.7,-3789.4 -1794.4,2792.1 -1794.4,-11567.5l0 -34303.6c0,-1795 199.3,-3191 -1595,-3390.5l-19339.3 0c-2392.5,199.4 -1794.4,3988.8 -1794.4,7977.6z"/>
   <path class="fil0" d="M77357 12564.7c-3190,0 -5383,997.2 -5183.7,4986 -598.1,398.8 -598.1,199.4 -996.9,598.3 -398.8,398.8 -598.1,398.8 -996.9,797.7l-9769.3 7379.3c-1196.3,797.7 -797.5,797.7 -2193.1,598.3 -1794.4,-398.9 -1993.7,199.4 -2990.6,398.9 -797.5,0 -1595,-598.3 -2392.5,-997.2l-6579.3 -3789.4c-3389.3,-1595.5 -3389.3,-1396.1 -3788.1,-2991.6 -398.8,-1595.6 -1993.7,-2991.6 -3788.1,-3191 -3190,-199.4 -5183.7,2991.6 -4186.8,5584.3 398.8,1196.7 1196.2,997.2 598.1,2592.7 -3588.7,9373.7 -7576.2,20741.8 -10965.5,30314.8 -1196.3,3390.5 -2392.5,6780.9 -3588.7,10171.5 -1196.3,3390.5 -996.9,3789.3 -2392.5,4387.6 -1595,398.9 -2990.6,1994.4 -2791.2,4188.3 398.7,5584.3 9171.1,4387.6 8373.7,-1196.7 -598.2,-3590 -2193.1,997.2 598.1,-7379.3l14753.7 -40286.8c1993.7,-997.2 1794.4,-797.8 3588.7,199.4 1196.3,797.7 2193.1,1196.7 3389.4,1994.4l7177.4 3789.4c598.2,6182.6 8573.1,5584.3 8174.4,-598.3l12161.8 -9174.2c797.5,-398.9 598.1,-398.9 1395.6,-199.4 2591.9,398.8 4386.3,-598.3 4984.4,-2393.3 797.5,-1595.5 199.3,-2193.8 199.3,-3191 199.4,-598.3 11763.1,-13561.9 12560.5,-14957.9l-4784.9 0c-797.5,1196.6 -6778.7,7778.1 -7974.9,9174.2 -797.5,1196.7 -1993.7,2193.9 -2591.9,3191z"/>
   <path class="fil0" d="M-0 13362.4l0 3390.5 12759.9 -2193.9c797.5,199.5 598.1,1396.1 3389.3,1595.6 1196.3,2592.7 2591.9,5384.9 3987.5,7778.1 1395.6,2592.7 2591.9,5185.4 3987.5,7977.7 598.1,997.2 1395.6,3191 2591.8,3390.5 2193.1,398.8 2591.9,-1595.6 1794.4,-2991.6 -1993.7,-4387.7 -5781.8,-11567.5 -7974.9,-15955.2 -1794.4,-3191 -398.8,-1396.1 -199.4,-4188.2 0,-4188.3 -5183.7,-5783.8 -7576.2,-2592.7 -996.9,1396.1 398.8,1196.7 -2990.6,1595.5l-7576.3 1396.1c-1395.6,398.9 -1794.4,199.5 -2193.1,797.7z"/>
   <path class="fil0" d="M96895.6 108495.2c4984.4,598.3 6579.4,-4786.5 3788.2,-7179.8 -3190,-2592.7 -7775.6,0 -6579.4,4786.5 -398.8,398.8 -598.1,598.3 -797.4,997.2 -797.5,997.2 -4785,5185.4 -5183.8,5983.2l4785 0 3987.4 -4587.1z"/>
   <path class="fil0" d="M34691 47067.7c-398.8,199.5 -1395.6,398.9 -1395.6,1595.6 0,797.7 398.8,1396.1 797.5,1994.4 1595,3191 598.1,1196.7 199.3,3789.4 -398.7,3390.5 2791.2,5983.2 5981.2,4387.6 2990.6,-1396.1 3190,-5384.9 398.8,-7179.8 -2193.1,-1396.1 -1794.4,598.3 -3190,-2393.2 -598.1,-1196.7 -1196.2,-2792.1 -2791.2,-2193.9z"/>
   <path class="fil0" d="M112845.6 16753l199.3 -3590c-3987.4,199.4 -4386.2,1396.1 -5582.5,199.4 -2591.8,-2592.6 -7177.4,-398.8 -6778.7,3590 398.7,3191 4585.5,5185.4 7177.4,2193.8 398.8,-398.8 598.1,-1196.7 996.9,-1396.1 598.1,-398.9 3190,-598.3 3987.5,-997.2z"/>
   <path class="fil0" d="M49644.1 199.5l-3588.7 -199.5c-199.4,1196.7 0,4587.1 0,5983.2 0,1994.4 -398.8,4188.3 1794.4,4188.3 2193.1,0 1993.7,-1994.4 1993.7,-3988.8 0,-1595.6 0,-4587.1 -199.3,-5983.2z"/>
   <path class="fil0" d="M11763 199.5l-3389.3 0c-199.4,2393.2 3788.1,2193.8 3389.3,0z"/>
  </g>
 </g>
</svg>
