<?xml version="1.0" encoding="UTF-8"?>
<!DOCTYPE svg PUBLIC "-//W3C//DTD SVG 1.1//EN" "http://www.w3.org/Graphics/SVG/1.1/DTD/svg11.dtd">
<!-- Creator: CorelDRAW 2018 (64 Bit Versão de avaliação) -->
<svg xmlns="http://www.w3.org/2000/svg" xml:space="preserve" width="150.116mm" height="150.067mm" version="1.1" style="shape-rendering:geometricPrecision; text-rendering:geometricPrecision; image-rendering:optimizeQuality; fill-rule:evenodd; clip-rule:evenodd"
viewBox="0 0 104257.5 104223.2"
 xmlns:xlink="http://www.w3.org/1999/xlink">
 <defs>
  <style type="text/css">
   <![CDATA[
    .fil0 {fill:#F1F1F2}
   ]]>
  </style>
 </defs>
 <g id="Camada_x0020_1">
  <metadata id="CorelCorpID_0Corel-Layer"/>
  <g id="_2720563275168">
   <path class="fil0" d="M59789.3 84440.3c1102.5,735 1653.8,2205.1 4042.6,1837.6 1470,-367.5 2572.5,-1653.8 2756.2,-3307.7 183.8,-4042.8 -5328.8,-4961.7 -6615.1,-2021.4l-6431.4 0 0 -4961.7 16354.1 0c0,1837.7 183.7,7901.9 -367.5,9004.5 -4042.5,7350.6 -31238,7901.9 -35464.3,0 -735,-1286.4 -367.5,-15987.7 -367.5,-18560.3 0,-3307.8 -183.7,-5513 1286.3,-8085.7 1102.5,-1837.7 3307.5,-2940.3 6063.8,-3307.7 2388.8,-551.3 15067.8,-367.5 18559,-367.5 6982.6,0 11209,367.5 14332.8,-4410.4 1286.2,-2021.4 1837.5,-4594.1 2021.3,-7350.6 183.7,-2940.3 -367.5,-6799.3 0,-9555.9 4042.5,183.8 6982.6,-551.3 9555.2,2021.4 8452.6,8453.2 6615.1,29586.3 -2205.1,33629.1 -3123.8,1470.1 -9555.2,-918.8 -9003.9,2572.7 183.8,1837.6 2388.8,1286.4 4226.4,1286.4 2021.2,0 3491.3,183.8 5512.5,-367.5 12679,-4778 13046.5,-31240.2 4410.1,-39142.1l-1653.8 -1286.4c-2756.3,-2205.1 -5145.1,-2021.4 -9371.4,-2205.1 -5696.4,0 -4961.3,-367.5 -4961.3,6799.3 0,8269.4 735,14701.2 -8636.4,14701.2 -4042.6,0 -20396.6,-183.8 -22969.2,183.8 -6798.8,918.8 -10657.7,5145.4 -10657.7,12679.8 0,3859.1 0,7718.2 0,11577.2 0,3491.5 -551.2,8085.7 918.8,10842.2 5328.8,10658.4 38404.4,9923.4 41895.7,-1102.6 551.2,-1286.3 367.5,-9555.8 183.8,-11393.5 0,-2021.4 -2021.3,-1653.8 -3858.8,-1653.8l-17640.2 0c-2205.1,183.8 -1653.8,2205.1 -1653.8,4042.8 0,9555.8 -1653.8,7901.9 9738.9,7901.9z"/>
   <path class="fil0" d="M43619.1 19387.2c-1286.3,-3124 -6247.6,-2572.7 -6798.8,918.8 -551.3,3859.1 4226.3,5513 6431.3,2572.7l6798.9 0 0 5145.4 -16170.3 0c-183.8,-1286.4 -367.5,-7901.9 183.8,-9004.5 1286.3,-2940.3 6982.6,-4594.2 10473.9,-5145.5 6982.6,-1470.1 21499.1,-918.8 24990.4,4961.7 1470,2756.4 -1286.3,10290.9 2021.3,10474.6 2205,0 1837.5,-2572.7 1837.5,-4410.4 0,-4042.9 551.2,-6983.1 -2572.5,-9923.4 -9738.9,-9004.5 -40425.7,-6248 -40609.5,5145.4 0,2205.2 0,4226.7 183.8,6431.8 0,5696.7 -367.5,4961.7 7350.2,4961.7 4226.3,0 8452.6,0 12678.9,0 4042.5,0 3123.8,-918.8 3123.8,-9372 0,-2756.5 -918.7,-2756.5 -3491.2,-2756.5 -2205.1,0 -4410.1,0 -6431.4,0z"/>
   <path class="fil0" d="M21017.4 31148.3c-13965.2,2756.4 -15619,32342.7 -4410.1,40612.2 2388.8,1837.6 4042.6,2205.1 7717.6,2205.1 1286.3,0 3675.1,367.5 4410.1,-551.3 1102.5,-1286.3 183.8,-2756.4 -1470,-2940.2 -5145.1,-183.8 -9003.9,1286.4 -12678.9,-7166.9 -2940.1,-6983.1 -2572.6,-17825.3 1653.8,-24624.6 918.8,-1470.1 3123.8,-4042.8 5696.3,-4226.6 2205,-183.8 8452.6,1102.6 7717.6,-2205.2 -367.5,-1653.8 -2021.3,-1286.3 -3675.1,-1286.3 -1470,0 -3491.3,-183.8 -4961.3,183.8z"/>
   <path class="fil0" d="M24692.5 47687.2c2205,-183.8 13597.7,0 16905.2,0 5696.4,0 11392.7,0 17089.1,0 1102.5,0 3123.8,183.8 3858.8,-367.5 918.8,-367.5 1286.3,-1837.7 367.5,-2756.5 -918.8,-735.1 -6431.4,-367.5 -8085.2,-367.5 -8452.6,0 -17089,0 -25541.6,0 -3123.8,0 -5512.6,-551.3 -7166.4,1286.4 -4410.1,4226.6 -3307.5,16355.1 551.2,19111.6 918.8,735.1 2388.8,551.3 2756.3,-551.3 1102.5,-2572.7 -2756.3,-1470.1 -2756.3,-9739.5 0,-2389 367.5,-4961.7 2021.3,-6615.6z"/>
   <path class="fil0" d="M59973.1 37028.8c-10290.2,0 -20580.3,0 -30870.5,0 -2021.3,0 -6063.8,-735.1 -6615.2,1102.5 -735,2940.3 3675.1,2389 5328.8,2389l30870.5 0c5512.5,0 4777.5,1102.6 4777.5,-10658.4 0,-2572.7 0,-5145.4 0,-7718.2 0,-3307.7 -3307.5,-2756.5 -3491.3,-551.3 -183.8,4042.8 367.5,11944.8 0,15436.3z"/>
   <path class="fil0" d="M80369.6 104103.1c1653.8,0 4777.6,367.5 5880.1,-183.8 3307.5,-2205.1 4042.5,-2940.2 6798.8,-4961.7 2205,-1653.9 2205,-2021.4 3858.8,-3491.5 367.5,-183.8 551.3,-367.5 735.1,-735.1 2205,-2756.5 4410,-5329.2 6247.5,-8453.2 551.3,-1102.6 183.8,-4226.6 183.8,-5696.7 -1653.8,367.5 -2021.3,2021.4 -2756.3,3307.8 -2572.5,3859.1 -4410.1,6615.6 -7717.6,9923.3 -1837.5,1837.7 -4226.3,3859.1 -6431.3,5329.2 -1286.3,735.1 -2388.8,1470.1 -3675.1,2205.2 -1653.8,918.8 -2756.3,1470.1 -3123.8,2756.4z"/>
   <path class="fil0" d="M14586.1 101530.5c4593.8,3307.7 3307.5,2572.7 9187.6,2572.7 -367.5,-1470.1 -1470,-1653.8 -3307.5,-2756.4 -1286.3,-918.8 -2388.8,-1470.1 -3491.3,-2389 -1286.3,-735.1 -2388.8,-1470.1 -3491.3,-2388.9 -1653.8,-1286.4 -1653.8,-1470.1 -3123.8,-2756.5 -183.7,-367.5 -367.5,-551.3 -551.2,-918.8 -367.5,-183.8 -551.2,-367.5 -918.8,-551.3 -1470,-1653.8 -4961.3,-6615.6 -6063.8,-8636.9 -735,-1102.6 -1102.5,-2756.5 -2756.3,-3124.1 0,6248 -735,4226.7 2572.5,9372.1 1286.3,1653.8 2021.3,2572.7 3307.6,4042.8 2756.2,3307.7 4961.3,5145.4 8636.4,7534.4z"/>
   <path class="fil0" d="M104073.8 23613.9c0,-6615.6 735,-4226.7 -2572.5,-9188.3 -1653.8,-2572.7 -3307.5,-4410.4 -5328.8,-6431.8 -551.2,-367.5 -918.8,-1102.5 -1470,-1470.1 -2940.1,-2389 -5145.1,-4042.9 -8636.4,-6064.3 -1102.5,-735.1 -4042.5,-367.5 -5696.4,-367.5 367.5,1470.1 1837.5,2021.4 3123.8,2756.4 9371.4,5513 13413.9,10107.2 18926.5,19295.4 367.5,735.1 735,1286.4 1653.8,1470.1z"/>
   <path class="fil0" d="M69.6 23613.9c1653.8,-367.5 2021.3,-2021.4 2756.3,-3124.1 2572.5,-4042.8 4226.3,-6615.6 7533.9,-10107.1 3858.8,-3675.3 7350.2,-5880.5 11944,-8637 735,-367.5 1286.2,-735 1470,-1653.8 -6615.1,0 -4042.5,-735.1 -9187.6,2572.7 -1286.3,735.1 -2205.1,1653.9 -3307.6,2389 -1286.2,918.8 -2205,1837.7 -3123.8,2940.2l-2205 2205.2c-1286.3,1470.1 -2021.3,2389 -3307.6,4042.8 -3307.5,5145.4 -2572.5,3124.1 -2572.5,9372.1z"/>
   <path class="fil0" d="M104073.8 2480.8l183.8 -2388.9 -2572.5 0c-735,735.1 -1286.3,1286.4 -2205.1,2021.4 -551.2,735.1 -1837.5,1837.7 -551.2,3124.1 1286.3,1102.6 2388.8,183.8 2940.1,-551.3 735,-735.1 1470,-1470.1 2205,-2205.2z"/>
   <path class="fil0" d="M2458.4 104103.1c1837.5,-1653.8 4042.5,-3491.5 2756.2,-4961.7 -918.8,-1470.1 -2205,-367.5 -2940,367.5 -2756.3,2756.5 -2205.1,1470.1 -2205.1,4594.1l2388.8 0z"/>
   <path class="fil0" d="M104073.8 101714.2c-735,-735.1 -1470,-1470.1 -2205,-2205.2 -735.1,-735.1 -1653.8,-1653.9 -2940.1,-551.3 -1470,1653.9 918.8,3124.1 2756.3,5145.4l2572.5 0 -183.8 -2388.9z"/>
   <path class="fil0" d="M69.6 2480.8c735,735.1 1286.3,1286.4 2205.1,2021.4 551.2,735.1 1653.8,1837.7 2940,735.1 1102.5,-1286.4 183.8,-2205.2 -551.2,-2940.3 -2572.5,-2756.4 -1470,-2205.1 -4593.8,-2205.1l0 2388.9z"/>
  </g>
 </g>
</svg>
