<?xml version="1.0" encoding="UTF-8"?>
<!DOCTYPE svg PUBLIC "-//W3C//DTD SVG 1.1//EN" "http://www.w3.org/Graphics/SVG/1.1/DTD/svg11.dtd">
<!-- Creator: CorelDRAW 2018 (64 Bit Versão de avaliação) -->
<svg xmlns="http://www.w3.org/2000/svg" xml:space="preserve" width="149.867mm" height="149.762mm" version="1.1" style="shape-rendering:geometricPrecision; text-rendering:geometricPrecision; image-rendering:optimizeQuality; fill-rule:evenodd; clip-rule:evenodd"
viewBox="0 0 52067 52030.6"
 xmlns:xlink="http://www.w3.org/1999/xlink">
 <defs>
  <style type="text/css">
   <![CDATA[
    .fil0 {fill:#F1F1F2}
   ]]>
  </style>
 </defs>
 <g id="Camada_x0020_1">
  <metadata id="CorelCorpID_0Corel-Layer"/>
  <g id="_2720325307200">
   <path class="fil0" d="M45154.3 46891.7c275.3,-183.5 1743.7,-1009.4 2019.1,-1101.2 458.9,458.8 1009.5,1101.2 1560.2,1468.2 -91.8,550.6 -642.4,1560 -917.8,2110.6 -367.1,-91.8 -734.2,-91.8 -1101.3,-183.5 -183.5,0 -367.1,0 -550.7,0 -367.1,-91.8 -367.1,-91.8 -550.7,-183.5l-458.9 -2110.6zm-2936.9 -2844.7l91.8 -2385.9 2110.9 -1101.2 2019.1 1192.9 0 2385.9c-275.3,275.3 -1652,917.6 -2110.9,1192.9l-2110.9 -1284.7zm-1743.8 -2018.8c275.3,917.6 -275.3,2569.4 367.1,3211.7l2202.7 1376.5c458.9,275.3 458.9,642.3 550.7,1192.9 91.8,550.6 183.5,1009.4 275.3,1560 275.3,1560 458.9,1284.7 2110.9,1468.2 826,91.8 2569.7,550.6 3028.6,0 183.6,-183.5 917.8,-2018.8 1193.1,-2385.9 826,-2018.8 734.2,-1284.7 -1101.3,-3303.5 -1193.1,-1192.9 -1009.5,0 -917.8,-3303.5 458.9,-458.8 1835.6,-642.3 1376.7,-1743.5 -458.9,-1009.4 -1560.2,-183.5 -2202.6,183.5l-2386.2 -1376.5c-734.2,-458.8 -1284.9,91.8 -2661.6,825.9 -367.1,183.5 -826,550.6 -1284.9,550.6 -550.7,0 -1284.9,-183.5 -1743.7,0 -367.1,183.5 -734.2,825.9 -275.3,1284.7 275.3,458.8 917.8,367.1 1468.4,458.8z"/>
   <path class="fil0" d="M32580.9 33218.8c-91.8,917.6 0,1743.5 917.8,2294.1 1743.8,1009.4 3671.1,-1101.2 2569.8,-2752.9 -550.7,-734.1 -1101.3,-825.9 -2294.4,-734.1l-13766.5 -13856.5c275.3,-1468.2 -734.2,-2752.9 -2294.4,-2385.9 -2019.1,458.8 -2019.1,3945.9 826,3670.6 458.9,0 917.8,550.6 1468.5,1101.2l12573.5 12663.5z"/>
   <path class="fil0" d="M23770.3 18077.6l10187.3 10185.9c-275.3,4221.2 5047.7,2385.9 3487.5,-367.1 -550.7,-917.6 -1009.6,-917.6 -2294.4,-917.6l-10095.5 -10094.1c0,-1192.9 -91.8,-1835.3 -917.8,-2202.3 -2386.2,-1468.2 -4038.2,2385.9 -1743.7,3303.5 458.9,183.5 917.8,183.5 1376.7,91.8z"/>
   <path class="fil0" d="M17437.7 24501.2l10187.2 10094.1c-458.9,2569.4 2019.1,3028.2 3120.4,2018.8 1376.7,-1284.7 458.9,-3578.8 -1927.3,-3211.7l-10187.3 -10185.9c367.1,-2844.7 -2202.7,-2936.4 -3120.4,-1927 -550.7,458.8 -826,1560 -275.3,2294.1 458.9,734.1 1101.3,1009.4 2202.7,917.6z"/>
   <path class="fil0" d="M38271 6240l7525.7 7524.7c-183.5,1101.2 91.8,1743.5 826,2202.3 1652,1101.2 3671.1,-825.9 2661.5,-2569.4 -458.9,-734.1 -1193.1,-1009.4 -2294.4,-825.9l-7525.7 -7524.7c367.1,-2569.4 -2019.1,-3028.2 -3120.4,-2018.8 -275.3,275.3 -458.9,458.8 -550.7,1009.4 -275.3,1192.9 642.4,2569.4 2478,2202.3z"/>
   <path class="fil0" d="M5781.9 38724.7l7525.7 7524.7c-275.3,2844.7 2202.7,2936.4 3212.2,2018.8 917.8,-1009.4 917.8,-3487 -2019.1,-3211.7l-7525.7 -7524.7c458.9,-3120 -3304,-3211.7 -3671.1,-1009.4 -91.8,550.6 0,1009.4 275.3,1376.5 458.9,734.1 1101.3,1009.4 2202.7,825.9z"/>
   <path class="fil0" d="M16795.2 30190.6l5047.7 5047.1c-91.8,1009.4 0,1651.8 734.2,2202.3 826,550.6 1835.5,367.1 2478,-183.5 1284.9,-1376.5 367.1,-3578.8 -1927.3,-3211.7l-5047.7 -5047.1c-91.8,-91.8 275.3,-1560 -826,-2294.1 -1743.7,-1009.4 -3671.1,825.9 -2661.5,2661.2 367.1,734.1 1101.3,917.6 2202.7,825.9z"/>
   <path class="fil0" d="M29552.2 17435.3l5047.7 5047c-367.1,2661.2 2110.9,3028.2 3212.2,2018.8 458.9,-550.6 826,-1560 275.3,-2385.9 -550.7,-734.1 -1193.1,-917.6 -2294.4,-825.9l-5047.7 -5047c458.9,-2661.2 -2294.4,-3028.2 -3212.2,-1927.1 -1193.1,1284.7 -275.3,3578.8 2019.1,3120z"/>
   <path class="fil0" d="M36894.4 11378.8l3762.9 3762.3c0,183.5 -367.1,1468.2 826,2294.1 1652,1009.4 3762.8,-917.6 2661.5,-2661.2 -458.9,-734.1 -1101.3,-1009.4 -2202.7,-825.9l-3854.7 -3854.1c458.9,-2202.4 -1835.5,-3211.8 -3120.4,-1927.1 -642.5,642.3 -826,1560 -275.3,2385.9 458.9,825.9 1101.3,825.9 2202.7,825.9z"/>
   <path class="fil0" d="M10737.9 37440l3854.6 3762.3c-183.5,3211.8 2478,2752.9 3120.4,2018.8 550.7,-367.1 826,-1560 367.1,-2294.1 -458.9,-825.9 -1193.1,-1009.4 -2294.4,-917.6l-3762.9 -3762.3c91.8,-1009.4 -91.8,-1743.5 -826,-2202.3 -734.2,-550.6 -1743.8,-367.1 -2294.4,183.5 -1376.6,1284.7 -367.1,3670.6 1835.6,3211.8z"/>
   <path class="fil0" d="M7525.7 5414.1c-183.6,917.6 -1284.9,3395.3 -1284.9,4037.7 -91.8,825.9 1009.6,1192.9 1468.5,642.3 183.5,-183.5 1284.9,-3487.1 1376.7,-4037.7 275.3,-642.3 734.2,-1376.5 91.8,-1927 -183.5,-91.8 -3671.1,-1284.7 -4038.2,-1376.5l917.8 -2752.9 -1835.5 0c-275.3,642.3 -458.9,1284.7 -642.5,2018.8 -275.3,642.3 -734.2,1560 -91.8,1927.1 91.8,183.5 3579.3,1376.5 4038.2,1468.2z"/>
   <path class="fil0" d="M50660.9 25694.1c-826,-91.8 -3671.1,-1284.7 -4038.2,-1284.7 -826,0 -917.8,825.9 -1193.1,1468.2 -183.6,734.1 -458.9,1376.5 -642.5,2110.6 -183.5,367.1 -642.4,1651.8 -642.4,2018.8 91.8,825.9 1193.1,1009.4 1560.2,458.8 183.5,-275.3 1284.9,-3670.6 1376.7,-4037.6 1468.4,275.3 3946.4,1651.8 4588.8,1101.2 550.7,-275.3 367.1,-1927.1 367.1,-2661.2 0,-825.9 0,-2202.3 -91.8,-3028.2 91.8,183.5 -1101.3,3303.5 -1284.9,3854.1z"/>
   <path class="fil0" d="M4864.2 22665.9c-826,-275.3 -1652,-550.6 -2478,-825.9 -1101.3,-367.1 -1560.2,-825.9 -2386.2,-183.5l0 5322.4c91.8,-91.8 0,183.5 91.8,-183.5l550.7 -1651.8c183.6,-550.6 458.9,-1284.7 642.5,-1835.3 917.8,183.5 3395.7,1284.7 4038.2,1284.7 826,91.8 917.8,-825.9 1193.1,-1468.2 183.6,-642.3 458.9,-1376.5 734.2,-2018.8 91.8,-458.8 550.7,-1743.5 550.7,-2110.6 -91.8,-825.9 -1101.3,-1009.4 -1560.2,-367.1 -275.3,367.1 -1101.3,3211.8 -1376.6,4037.7z"/>
   <path class="fil0" d="M24871.6 51571.7l-1284.9 458.8 3304 0 -1376.7 -3670.6c458.9,-91.8 3487.5,-1192.9 3671.1,-1376.5 550.7,-458.8 275.3,-1376.5 -458.9,-1468.2 -458.9,-91.8 -3120.4,1009.4 -3762.9,1192.9 -642.4,275.3 -1376.6,367.1 -1376.6,1101.2 0,550.6 1101.3,2936.4 1284.9,3762.3z"/>
   <path class="fil0" d="M22944.3 2018.8c826,-183.5 1468.4,-550.6 2202.7,-734.1 826,-367.1 1560.2,-367.1 1743.7,-1284.7 -826,0 -1835.5,0 -2661.5,0 -1101.3,0 -1284.9,275.3 -2202.7,550.6 -734.2,275.3 -1376.6,458.8 -1009.5,1468.2l1468.5 3945.9c367.1,917.6 1376.6,734.1 1652,183.5 367.1,-734.1 -1101.3,-3211.8 -1193.1,-4129.4z"/>
   <path class="fil0" d="M16244.5 33494.1c-2569.7,550.6 -1743.7,4312.9 734.2,3762.3 917.8,-183.5 1743.8,-1101.2 1468.5,-2202.3 -183.6,-917.6 -1101.3,-1743.5 -2202.7,-1560z"/>
   <path class="fil0" d="M35425.9 14223.5c-2478,825.9 -1101.3,4404.7 1193.1,3578.8 826,-275.3 1560.2,-1192.9 1193.1,-2385.9 -275.3,-917.6 -1284.9,-1651.8 -2386.2,-1192.9z"/>
   <path class="fil0" d="M4221.7 52030.6l1835.5 0c91.8,-275.3 1009.5,-2294.1 -550.7,-2202.4 -826,0 -1101.3,1468.2 -1284.9,2202.4z"/>
  </g>
 </g>
</svg>
