<?xml version="1.0" encoding="UTF-8"?>
<!DOCTYPE svg PUBLIC "-//W3C//DTD SVG 1.1//EN" "http://www.w3.org/Graphics/SVG/1.1/DTD/svg11.dtd">
<!-- Creator: CorelDRAW 2018 (64 Bit Versão de avaliação) -->
<svg xmlns="http://www.w3.org/2000/svg" xml:space="preserve" width="193.035mm" height="137.969mm" version="1.1" style="shape-rendering:geometricPrecision; text-rendering:geometricPrecision; image-rendering:optimizeQuality; fill-rule:evenodd; clip-rule:evenodd"
viewBox="0 0 711389.6 508456.5"
 xmlns:xlink="http://www.w3.org/1999/xlink">
 <defs>
  <style type="text/css">
   <![CDATA[
    .fil0 {fill:black}
    .fil1 {fill:#FEFEFE}
   ]]>
  </style>
 </defs>
 <g id="Camada_x0020_1">
  <metadata id="CorelCorpID_0Corel-Layer"/>
  <g id="_3154762821856">
   <path class="fil0" d="M197970.2 176771.7c-33161.3,6826.3 -42914.8,39982.4 -55594,65337.1 -11704.1,25354.8 -103385.5,206738.9 -107287.1,222342.1 -1950.6,8776.5 3901.6,15602.8 10729,17553 9753.1,4876 99484.3,1950.6 118015.7,1950.6l239932.7 0c20481.7,0 107286.7,1950.3 119966.3,-975.5 15605.3,-3900.5 27309.1,-10726.8 35111.9,-24379.3 21457.6,-36081.9 40964.1,-81915.4 60470.7,-119947.5l59495.6 -119947.5c5851.9,-12677.4 16580.8,-35106.8 -1950.6,-40957.9 -8778,-2925.4 -211648.1,-975.1 -238957.5,-975.1 -15605.3,0 -231154.3,-975.1 -239932.7,0z"/>
   <path class="fil1" d="M197970.2 176771.7c8778.3,-975.1 224327.3,0 239932.7,0 27309.4,0 230179.6,-1950.3 238957.5,975.1 18531.5,5851.1 7802.5,28280.5 1950.6,40957.9l-59495.6 119947.5c-19506.6,38032.1 -39013.2,83865.6 -60470.7,119947.5 -7802.9,13652.5 -19506.6,20478.8 -35111.9,24379.3 -12679.6,2925.7 -99484.6,975.5 -119966.3,975.5l-239932.7 0c-18531.5,0 -108262.6,2925.4 -118015.7,-1950.6 -6827.4,-1950.3 -12679.6,-8776.5 -10729,-17553 3901.6,-15603.1 95583,-196987.3 107287.1,-222342.1 12679.2,-25354.8 22432.7,-58510.9 55594,-65337.1zm-975.1 -85815.9c0,-72163.8 36087.4,-67287.8 89730.8,-67287.8 23408.2,0 51692.7,-2925.4 69249.1,9752 18531.1,13652.5 20482.1,29255.3 19506.6,57535.8 38038,0 76076.1,0 114114.5,0 18531.1,0 36087.4,-2925.7 47791.5,8776.5 10728.6,9752 14629.8,25354.8 11703.7,44858.4 -98508.8,0 -197017.9,0 -295526.6,0 -31210.7,0 -61446.2,-2925.4 -85829.5,11702.3 -22432.7,12677.4 -32186.2,28280.1 -44865.4,53634.9 -9753.5,20479.1 -93632.4,194061.6 -97533.6,196986.9 -975.5,-80939.9 0,-162855.3 0,-243795.6 0,-15602.8 -2926.1,-45833.5 4876.7,-56560.6 9753.1,-15602.8 21457.2,-15602.8 44865.4,-15602.8 40964.1,0 81928.3,0 121916.9,0zm-179461.9 403725.5c10728.6,9752 55594.4,14628 101434.9,13652.5l310156.9 0c26334.3,0 51692.7,0 78027.1,0 36087.4,0 58520.1,-13652.5 74125.4,-41932.6 23408.2,-39982.4 44865.4,-87766.5 65347.5,-129699.5 14630.2,-30230.4 35112.3,-74113.7 50717.6,-103369.3 8778,-15602.8 20482.1,-39007.3 9753.5,-59486 -10729,-20479.1 -29260.4,-21454.3 -56569.5,-21454.3 -25358.8,0 -51693.1,0 -77051.6,0 -975.5,-24379.6 2925.7,-56560.6 -23408.2,-74113.7 -6827.4,-4876 -12679.2,-8776.9 -22432.7,-9752 -10728.6,-2925.4 -107287.1,-975.1 -127769.2,-975.1 -2925.7,-15603.1 -3901.2,-21453.9 -11704.1,-34131.3 -22432.7,-37057 -64372,-33156.5 -101434.9,-33156.5 -29260.1,0 -56569.5,-2925.4 -79002.2,10727.1 -14629.8,9752 -24383.3,21453.9 -30235.2,38032.1 -1951,6826.3 -1951,12677.4 -3901.6,18528.5 -24383.3,0 -47791.5,0 -72174.8,0 -20482.1,0 -50717.3,-2925.7 -67298.1,4876 -42914.8,18528.5 -33161.3,67287.4 -33161.3,111170.7 0,95567.9 3901.2,190160.7 3901.2,285728.6 2925.7,12677.4 4876.7,16578.3 12679.2,25354.8z"/>
   <path class="fil0" d="M231131.8 90955.8c0,-16578.3 -3901.2,-29255.6 12679.2,-33156.5 8778,-2925.4 33161.7,-1950.3 43890.3,-1950.3 55594,0 56569.5,0 55594,35106.8l-112163.5 0zm-34136.8 0c-39988.7,0 -80952.8,0 -121916.9,0 -23408.2,0 -35112.3,0 -44865.4,15602.8 -7802.9,10727.1 -4876.7,40957.9 -4876.7,56560.6 0,80940.3 -975.5,162855.7 0,243795.6 3901.2,-2925.4 87780.2,-176507.8 97533.6,-196986.9 12679.2,-25354.8 22432.7,-40957.5 44865.4,-53634.9 24383.3,-14627.6 54618.9,-11702.3 85829.5,-11702.3 98508.8,0 197017.9,0 295526.6,0 2926.1,-19503.6 -975.1,-35106.4 -11703.7,-44858.4 -11704.1,-11702.3 -29260.4,-8776.5 -47791.5,-8776.5 -38038.4,0 -76076.4,0 -114114.5,0 975.5,-28280.5 -975.5,-43883.3 -19506.6,-57535.8 -17556.3,-12677.4 -45840.9,-9752 -69249.1,-9752 -53643.4,0 -89730.8,-4876 -89730.8,67287.8z"/>
   <path class="fil1" d="M231131.8 90955.8l112163.5 0c975.5,-35106.8 0,-35106.8 -55594,-35106.8 -10728.6,0 -35112.3,-975.1 -43890.3,1950.3 -16580.5,3900.9 -12679.2,16578.3 -12679.2,33156.5z"/>
  </g>
 </g>
</svg>
